Coordinates
version=1
nRows=17
nColumns=40
inDegrees=yes

Units are S.I. units (second, meters, Newtons, ...)
Angles are in degrees.

endheader
time	pelvis_tilt	pelvis_list	pelvis_rotation	pelvis_tx	pelvis_ty	pelvis_tz	hip_flexion_r	hip_adduction_r	hip_rotation_r	knee_angle_r	knee_angle_r_beta	ankle_angle_r	subtalar_angle_r	mtp_angle_r	hip_flexion_l	hip_adduction_l	hip_rotation_l	knee_angle_l	knee_angle_l_beta	ankle_angle_l	subtalar_angle_l	mtp_angle_l	lumbar_extension	lumbar_bending	lumbar_rotation	arm_flex_r	arm_add_r	arm_rot_r	elbow_flex_r	pro_sup_r	wrist_flex_r	wrist_dev_r	arm_flex_l	arm_add_l	arm_rot_l	elbow_flex_l	pro_sup_l	wrist_flex_l	wrist_dev_l
     53.63000000	     -5.71407331	     -3.51948689	    -10.65352254	      1.10516728	      0.92876740	      0.42207792	     25.47255610	     -2.94657845	     -3.95381992	     19.03151522	     19.03151522	      6.34014447	      6.14783326	      3.86977139	      9.80091238	     -5.18512399	    -14.23779702	     19.37701242	     19.37701242	     15.71873265	    -13.56860119	     -2.58258803	     -9.93230241	      6.26963135	      1.98616611	    -20.66783470	    -11.13984724	    -11.58939564	     30.62556886	     46.40267273	      0.00000000	      0.00000000	     39.21586608	    -24.55241475	     -6.08695207	     74.85251889	     48.36062257	      0.00000000	      0.00000000
     53.65057143	     -5.82987902	     -3.19374597	    -10.96752992	      1.10611602	      0.92778019	      0.42639145	     24.81184945	     -2.85088267	     -4.36418900	     17.09984715	     17.09984715	      5.93932652	      8.24325522	      4.60022927	      9.33869978	     -5.08662720	    -14.68380868	     19.04325697	     19.04325697	     15.86996882	    -13.35203903	     -2.94756662	     -9.78277914	      6.03136584	      2.28575986	    -20.74251428	    -10.97570130	    -11.43701299	     31.14006559	     46.36490772	      0.00000000	      0.00000000	     40.22381565	    -24.70421757	     -6.85035035	     76.89140888	     48.45046053	      0.00000000	      0.00000000
     53.67114286	     -5.88562533	     -2.92330425	    -11.25642166	      1.10757153	      0.92689730	      0.43095502	     24.23989904	     -2.75682746	     -4.79163572	     15.95217849	     15.95217849	      5.59628842	     10.03316220	      4.86608138	      8.75190138	     -5.02628564	    -15.06676311	     18.66111560	     18.66111560	     15.96952557	    -13.17714467	     -3.35744199	     -9.70353637	      5.88720515	      2.45022997	    -20.66777969	    -10.96184144	    -11.29587536	     32.08556662	     46.30960511	      0.00000000	      0.00000000	     40.56453522	    -24.86593445	     -8.17316800	     79.66701978	     48.58313127	      0.00000000	      0.00000000
     53.69171429	     -5.92534347	     -2.69872065	    -11.47061272	      1.10947182	      0.92615671	      0.43575000	     23.71782763	     -2.61120506	     -4.93838734	     15.32993881	     15.32993881	      5.18586270	     10.96162069	      4.28587792	      8.11708691	     -4.98710455	    -15.28616551	     18.26228741	     18.26228741	     16.04725952	    -13.18361375	     -3.58471352	     -9.59236719	      5.79714211	      2.35525089	    -20.26045711	    -11.00251283	    -11.07071840	     33.15919736	     46.24566650	      0.00000000	      0.00000000	     40.43096333	    -25.03303513	     -9.84345123	     82.64926119	     48.73589729	      0.00000000	      0.00000000
     53.71228571	     -6.03142494	     -2.49897987	    -11.56824407	      1.11167418	      0.92531154	      0.44073656	     23.34860235	     -2.43036006	     -4.82596061	     15.12161856	     15.12161856	      4.33128963	     10.99059923	      1.58533151	      7.66039769	     -5.00743735	    -15.31312736	     18.08160909	     18.08160909	     16.17210641	    -13.32412026	     -3.65373208	     -9.31521819	      5.76556975	      1.45448666	    -19.26000466	    -11.39615551	    -10.05116933	     34.20191666	     46.13049537	      0.00000000	      0.00000000	     39.50205000	    -25.79157400	    -12.30635548	     85.74157685	     48.91500915	      0.00000000	      0.00000000
     53.73285714	     -6.18864977	     -2.44309830	    -11.62176891	      1.11413409	      0.92471558	      0.44604272	     23.06548420	     -2.13504056	     -4.79667740	     15.29862776	     15.29862776	      4.49465870	     11.00796452	      1.39953624	      7.23084156	     -5.22532607	    -15.31706727	     17.93400553	     17.93400553	     16.33402977	    -13.37216003	     -3.62567575	     -8.86916611	      5.88857177	      1.75768693	    -18.65220941	    -11.41499800	    -10.01033936	     34.42263559	     46.12323692	      0.00000000	      0.00000000	     39.80895745	    -25.75381790	    -12.36235709	     86.05140458	     48.92569744	      0.00000000	      0.00000000
     53.75342857	     -5.97381490	     -2.39214179	    -11.65009128	      1.11704243	      0.92482549	      0.45151481	     22.36069628	     -1.85421861	     -4.41789917	     15.44889363	     15.44889363	      3.35070044	     10.13373223	     -3.07596050	      6.18210999	     -5.30152380	    -15.35025138	     17.41780970	     17.41780970	     16.64401345	    -13.13919381	     -2.63077873	     -9.00785633	      5.85350324	      1.29684665	    -17.39359648	    -11.88271635	     -8.27818530	     34.86424436	     45.98945570	      0.00000000	      0.00000000	     38.79747776	    -25.78200901	    -14.45367087	     89.54330522	     49.05363640	      0.00000000	      0.00000000
     53.77400000	     -5.90066227	     -2.42895939	    -11.61743256	      1.11989611	      0.92488845	      0.45719201	     22.00375910	     -1.51163106	     -4.11518827	     16.15686156	     16.15686156	      3.80066018	      9.43496175	     -3.60333655	      5.35378835	     -5.54958037	    -15.32226742	     17.02486462	     17.02486462	     16.65587414	    -13.04854937	     -2.27278672	     -8.91018982	      5.93745833	      1.54217374	    -16.61925981	    -12.00193471	     -8.30491606	     35.40101646	     45.97356223	      0.00000000	      0.00000000	     38.69846357	    -25.47870515	    -14.86015363	     90.56495396	     49.09129539	      0.00000000	      0.00000000
     53.79457143	     -5.96081727	     -2.62517636	    -11.45216144	      1.12271046	      0.92498643	      0.46289367	     21.62436482	     -1.05095803	     -4.25866916	     16.62594468	     16.62594468	      4.25374782	      9.13513669	     -3.90012873	      4.79613455	     -6.05535056	    -15.23723638	     16.88240987	     16.88240987	     16.60655466	    -13.01932363	     -2.10498099	     -8.60907821	      6.21097354	      1.69293971	    -15.68285179	    -12.17067025	     -8.33911388	     35.79921845	     45.96650048	      0.00000000	      0.00000000	     38.53836876	    -25.10422371	    -14.80519024	     90.77736451	     49.08970360	      0.00000000	      0.00000000
     53.81514286	     -5.80701858	     -2.78931045	    -11.26393271	      1.12550295	      0.92546848	      0.46878629	     21.15616232	     -0.52153476	     -3.64963178	     17.28146303	     17.28146303	      4.60590874	      7.44941284	     -4.70790647	      3.97799873	     -6.50869194	    -15.27269583	     16.69335314	     16.69335314	     16.86966833	    -12.54257931	     -1.00259498	     -8.70474534	      6.31293802	      0.99436150	    -14.61572597	    -12.47537802	     -8.55819105	     37.29376080	     45.92235737	      0.00000000	      0.00000000	     37.04945071	    -25.13446154	    -16.67067422	     93.20105588	     49.22476090	      0.00000000	      0.00000000
     53.83571429	     -5.81194519	     -2.98688034	    -10.96805579	      1.12806002	      0.92582676	      0.47452635	     20.76403494	     -0.08636142	     -3.84893808	     17.73725948	     17.73725948	      5.16442832	      7.09610105	     -4.96737932	      3.42261007	     -7.04419378	    -15.14105193	     16.56753083	     16.56753083	     16.69239527	    -12.34895437	     -0.80318751	     -8.51556048	      6.44649472	      1.08221358	    -13.62923286	    -12.70607055	     -8.58003844	     37.70903481	     45.91412560	      0.00000000	      0.00000000	     36.64132603	    -24.60392853	    -16.49832360	     93.22441041	     49.20987507	      0.00000000	      0.00000000
     53.85628571	     -5.68622059	     -3.15011289	    -10.66632196	      1.13050045	      0.92648796	      0.48034599	     20.25291782	      0.40663056	     -3.51409282	     18.15508349	     18.15508349	      5.77162392	      5.90312568	     -4.91970136	      2.68649288	     -7.56643380	    -15.31789229	     16.35824379	     16.35824379	     16.64211683	    -11.57092891	     -0.29746166	     -8.54133329	      6.47060181	      0.80145186	    -12.64553742	    -13.00239641	     -8.64216462	     38.82451672	     45.87857534	      0.00000000	      0.00000000	     35.69596289	    -24.36376669	    -16.94878009	     93.66336607	     49.23235194	      0.00000000	      0.00000000
     53.87685714	     -5.73218019	     -3.30353175	    -10.23077521	      1.13260683	      0.92693199	      0.48583021	     19.84391563	      0.78255208	     -3.81977651	     18.35201399	     18.35201399	      6.31205333	      5.63781351	     -5.07619527	      2.36168055	     -8.11729707	    -15.12447910	     16.42507979	     16.42507979	     16.35997988	    -11.32769934	     -0.12996910	     -8.35766407	      6.46030672	      0.74912963	    -11.63484616	    -13.28076500	     -8.68190672	     39.32405140	     45.86823189	      0.00000000	      0.00000000	     35.03981138	    -23.62817137	    -16.66029220	     93.54228538	     49.20593387	      0.00000000	      0.00000000
     53.89742857	     -5.73503866	     -3.44653165	     -9.74899341	      1.13446425	      0.92750097	      0.49113026	     19.37482392	      1.13824244	     -4.13077996	     18.45640512	     18.45640512	      6.78810965	      5.32037009	     -5.14642077	      2.05626664	     -8.67274477	    -14.94447703	     16.54774569	     16.54774569	     16.07905077	    -10.96899029	      0.01935080	     -8.25769722	      6.40920074	      0.63932735	    -10.58396753	    -13.62276043	     -8.74189540	     39.94801827	     45.85438534	      0.00000000	      0.00000000	     34.11839777	    -22.86568814	    -16.36024557	     93.25606562	     49.17367323	      0.00000000	      0.00000000
     53.91800000	     -5.74123238	     -3.54724943	     -9.22149712	      1.13609084	      0.92809330	      0.49619368	     18.86329735	      1.44753686	     -4.45365527	     18.41201937	     18.41201937	      7.23810241	      5.01423223	     -5.15418268	      1.86295976	     -9.21060550	    -14.77240904	     16.78786800	     16.78786800	     15.79516822	    -10.53375067	      0.12757905	     -8.19310834	      6.32403583	      0.48223698	     -9.51299166	    -13.99990283	     -8.80557631	     40.67152667	     45.83697333	      0.00000000	      0.00000000	     32.99161324	    -22.09060569	    -16.03287964	     92.78963461	     49.13476419	      0.00000000	      0.00000000
     53.93857143	     -5.79964673	     -3.92264781	     -8.64995506	      1.13753728	      0.92864678	      0.50136952	     18.17742545	      2.13333170	     -4.65835614	     18.00007492	     18.00007492	      7.80630332	      4.46098115	     -4.01556433	      2.09326910	    -10.42321758	    -15.56932179	     17.94358929	     17.94358929	     16.54175098	     -8.17125644	      0.94532823	     -8.13641887	      6.63155609	     -0.11904863	     -9.38626849	    -14.85588768	     -7.70550531	     44.77364620	     45.62229863	      0.00000000	      0.00000000	     31.28028167	    -21.79578157	    -16.38405424	     91.84694466	     49.09717035	      0.00000000	      0.00000000
     53.95914286	     -5.86745264	     -4.04512325	     -8.01962127	      1.13867232	      0.92910190	      0.50594406	     17.63579354	      2.44089769	     -5.17105226	     17.68522205	     17.68522205	      8.13984735	      4.40089335	     -3.97312257	      2.34528126	    -11.07177979	    -15.12644853	     18.73784968	     18.73784968	     16.31763148	     -7.90788849	      0.92966000	     -8.03483094	      6.59583773	     -0.34448225	     -8.20063102	    -15.33541763	     -7.59138065	     45.58802069	     45.59437288	      0.00000000	      0.00000000	     29.80958084	    -21.08415818	    -15.77090183	     90.51472853	     49.01651336	      0.00000000	      0.00000000
